<svg id="Layer_1" data-name="Layer 1" xmlns="http://www.w3.org/2000/svg" xmlns:xlink="http://www.w3.org/1999/xlink" viewBox="0 0 110.8 135.1"><defs><style>.cls-1,.cls-11,.cls-14,.cls-45,.cls-7,.cls-8{fill:none;}.cls-2{clip-path:url(#clip-path);}.cls-3{fill:#f35790;}.cls-10,.cls-15,.cls-19,.cls-4,.cls-6{fill:#fff;}.cls-10,.cls-14,.cls-16,.cls-17,.cls-18,.cls-19,.cls-4,.cls-5,.cls-6,.cls-7,.cls-8,.cls-9{stroke:#15003e;}.cls-10,.cls-11,.cls-14,.cls-16,.cls-17,.cls-4,.cls-7{stroke-linecap:round;}.cls-4,.cls-5,.cls-6,.cls-7,.cls-9{stroke-linejoin:round;}.cls-10,.cls-11,.cls-14,.cls-16,.cls-17,.cls-18,.cls-19,.cls-4,.cls-45,.cls-5,.cls-6,.cls-7,.cls-8,.cls-9{stroke-width:0.25px;}.cls-17,.cls-5{fill:#15003e;}.cls-10,.cls-11,.cls-14,.cls-16,.cls-17,.cls-18,.cls-19,.cls-45,.cls-8{stroke-miterlimit:10;}.cls-12,.cls-16,.cls-18,.cls-9{fill:#25e899;}.cls-11{stroke:#25e899;}.cls-13{fill:#0fce7c;}.cls-20{clip-path:url(#clip-path-4);}.cls-21{clip-path:url(#clip-path-5);}.cls-22{fill:url(#linear-gradient);}.cls-23{fill:url(#linear-gradient-2);}.cls-24{clip-path:url(#clip-path-7);}.cls-25{fill:url(#linear-gradient-3);}.cls-26{fill:url(#linear-gradient-4);}.cls-27{clip-path:url(#clip-path-9);}.cls-28{fill:url(#linear-gradient-5);}.cls-29{fill:url(#linear-gradient-6);}.cls-30{clip-path:url(#clip-path-11);}.cls-31{fill:url(#linear-gradient-7);}.cls-32{fill:url(#linear-gradient-8);}.cls-33{clip-path:url(#clip-path-13);}.cls-34{fill:url(#linear-gradient-9);}.cls-35{fill:url(#linear-gradient-10);}.cls-36{clip-path:url(#clip-path-15);}.cls-37{fill:url(#linear-gradient-11);}.cls-38{fill:url(#linear-gradient-12);}.cls-39{clip-path:url(#clip-path-17);}.cls-40{fill:url(#linear-gradient-13);}.cls-41{fill:url(#linear-gradient-14);}.cls-42{clip-path:url(#clip-path-19);}.cls-43{fill:url(#linear-gradient-15);}.cls-44{fill:url(#linear-gradient-16);}.cls-45{stroke:#2e3192;}.cls-46{fill:#f578a6;}.cls-47{clip-path:url(#clip-path-24);}.cls-48{clip-path:url(#clip-path-26);}.cls-49{fill:#d44c6e;}.cls-50{clip-path:url(#clip-path-28);}.cls-51{fill:#ffe6e6;}.cls-52{clip-path:url(#clip-path-30);}.cls-53{fill:#fda19c;opacity:0.2;isolation:isolate;}.cls-54{fill:#bcbec0;}.cls-55{fill:#5a29c4;}</style><clipPath id="clip-path" transform="translate(0 3.6)"><polygon class="cls-1" points="110.9 32 110.9 96 55.4 128 11.1 102.4 10.9 102.3 0 96 0 32 55.4 0 110.9 32"/></clipPath><clipPath id="clip-path-4" transform="translate(0 3.6)"><rect class="cls-1" y="-3.6" width="110.8" height="135.1"/></clipPath><clipPath id="clip-path-5" transform="translate(0 3.6)"><path class="cls-1" d="M18.3,23c-1.1-2.3-3-2.3-4.1,0l-.2.5-.2-.5c-1.1-2.3-3-2.3-4.1,0a11.1,11.1,0,0,0,0,8.4L14,39.1l4.3-7.7A10.25,10.25,0,0,0,18.3,23Z"/></clipPath><linearGradient id="linear-gradient" x1="11.11" y1="99.77" x2="17.84" y2="99.94" gradientTransform="matrix(1, 0, 0, -1, 0, 130)" gradientUnits="userSpaceOnUse"><stop offset="0" stop-color="#fff"/><stop offset="1" stop-color="#ffe1df"/></linearGradient><linearGradient id="linear-gradient-2" x1="14.01" y1="100.3" x2="19.79" y2="100.3" gradientTransform="matrix(1, 0, 0, -1, 0, 133.6)" gradientUnits="userSpaceOnUse"><stop offset="0" stop-color="#ffe1df"/><stop offset="0.3" stop-color="#fff1f0" stop-opacity="0.7"/><stop offset="0.64" stop-color="#fffcfb" stop-opacity="0.36"/><stop offset="1" stop-color="#fff" stop-opacity="0"/></linearGradient><clipPath id="clip-path-7" transform="translate(0 3.6)"><path class="cls-1" d="M102.5,41.1c-1.1-2.3-3-2.3-4.1,0l-.2.5-.2-.5c-1.1-2.3-3-2.3-4.1,0a11.1,11.1,0,0,0,0,8.4l4.3,7.7,4.3-7.7A10.25,10.25,0,0,0,102.5,41.1Z"/></clipPath><linearGradient id="linear-gradient-3" x1="95.3" y1="81.67" x2="102.02" y2="81.84" xlink:href="#linear-gradient"/><linearGradient id="linear-gradient-4" x1="98.19" y1="82.2" x2="103.97" y2="82.2" xlink:href="#linear-gradient-2"/><clipPath id="clip-path-9" transform="translate(0 3.6)"><path class="cls-1" d="M33.1,52.5c-.7-1.4-1.9-1.4-2.6,0l-.1.3-.1-.3c-.7-1.4-1.9-1.4-2.6,0a6.7,6.7,0,0,0,0,5.2l2.7,4.8,2.7-4.8A6.7,6.7,0,0,0,33.1,52.5Z"/></clipPath><linearGradient id="linear-gradient-5" x1="28.58" y1="73" x2="32.76" y2="73.1" xlink:href="#linear-gradient"/><linearGradient id="linear-gradient-6" x1="30.38" y1="73.3" x2="33.98" y2="73.3" xlink:href="#linear-gradient-2"/><clipPath id="clip-path-11" transform="translate(0 3.6)"><path class="cls-1" d="M80.3,62.8c-.7-1.4-1.9-1.4-2.6,0l-.1.3-.1-.3c-.7-1.4-1.9-1.4-2.6,0a6.7,6.7,0,0,0,0,5.2l2.7,4.8L80.3,68A6.7,6.7,0,0,0,80.3,62.8Z"/></clipPath><linearGradient id="linear-gradient-7" x1="75.79" y1="62.7" x2="79.97" y2="62.8" xlink:href="#linear-gradient"/><linearGradient id="linear-gradient-8" x1="77.59" y1="63" x2="81.19" y2="63" xlink:href="#linear-gradient-2"/><clipPath id="clip-path-13" transform="translate(0 3.6)"><path class="cls-1" d="M84.4,5.5c-.7-1.4-1.9-1.4-2.6,0l-.1.3-.1-.3c-.7-1.4-1.9-1.4-2.6,0a6.7,6.7,0,0,0,0,5.2l2.7,4.8,2.7-4.8A6.7,6.7,0,0,0,84.4,5.5Z"/></clipPath><linearGradient id="linear-gradient-9" x1="79.86" y1="120" x2="84.04" y2="120.1" xlink:href="#linear-gradient"/><linearGradient id="linear-gradient-10" x1="81.66" y1="120.3" x2="85.26" y2="120.3" xlink:href="#linear-gradient-2"/><clipPath id="clip-path-15" transform="translate(0 3.6)"><path class="cls-1" d="M33.4,10.7c-.4-.9-1.1-.9-1.5,0l-.1.2-.1-.2c-.4-.9-1.1-.9-1.5,0a4.15,4.15,0,0,0,0,3.1l1.6,2.8,1.6-2.8A4.15,4.15,0,0,0,33.4,10.7Z"/></clipPath><linearGradient id="linear-gradient-11" x1="30.76" y1="116.67" x2="33.22" y2="116.73" xlink:href="#linear-gradient"/><linearGradient id="linear-gradient-12" x1="31.82" y1="116.85" x2="33.94" y2="116.85" xlink:href="#linear-gradient-2"/><clipPath id="clip-path-17" transform="translate(0 3.6)"><path class="cls-1" d="M7.7,35.7c-.4-.9-1.1-.9-1.5,0l-.1.2L6,35.7c-.4-.9-1.1-.9-1.5,0a4.15,4.15,0,0,0,0,3.1l1.6,2.8,1.6-2.8A4.15,4.15,0,0,0,7.7,35.7Z"/></clipPath><linearGradient id="linear-gradient-13" x1="5.01" y1="91.67" x2="7.47" y2="91.73" xlink:href="#linear-gradient"/><linearGradient id="linear-gradient-14" x1="6.07" y1="91.85" x2="8.19" y2="91.85" xlink:href="#linear-gradient-2"/><clipPath id="clip-path-19" transform="translate(0 3.6)"><path class="cls-1" d="M90.8,30.8c-.4-.9-1.1-.9-1.5,0V31l-.1-.2c-.4-.9-1.1-.9-1.5,0a4.15,4.15,0,0,0,0,3.1l1.6,2.8,1.6-2.8A3.74,3.74,0,0,0,90.8,30.8Z"/></clipPath><linearGradient id="linear-gradient-15" x1="88.2" y1="96.57" x2="90.66" y2="96.63" xlink:href="#linear-gradient"/><linearGradient id="linear-gradient-16" x1="89.26" y1="96.65" x2="91.38" y2="96.65" xlink:href="#linear-gradient-2"/><clipPath id="clip-path-24" transform="translate(0 3.6)"><path class="cls-1" d="M66.1,25.7c-2.8-5.1-7.4-5.1-10.2,0l-.6,1-.6-1c-2.8-5.1-7.4-5.1-10.2,0s-2.8,13.3,0,18.4c0,0,10.6,16.9,10.7,16.8S65.9,44.1,65.9,44.1C69,39.1,69,30.8,66.1,25.7Z"/></clipPath><clipPath id="clip-path-26" transform="translate(0 3.6)"><path class="cls-1" d="M64.5,25.7c-2.4-5.1-6.2-5.1-8.6,0l-.5,1-.5-1c-2.4-5.1-6.2-5.1-8.6,0s-2.4,13.3,0,18.4c0,0,9,16.9,9.1,16.8s9.1-16.8,9.1-16.8C66.9,39.1,66.9,30.8,64.5,25.7Z"/></clipPath><clipPath id="clip-path-28" transform="translate(0 3.6)"><path class="cls-1" d="M61.5,25.7c-1.6-5.1-4.2-5.1-5.8,0l-.3,1-.3-1c-1.6-5.1-4.2-5.1-5.8,0a35.87,35.87,0,0,0,0,18.4s6,16.9,6.1,16.8,6.1-16.8,6.1-16.8A35.87,35.87,0,0,0,61.5,25.7Z"/></clipPath><clipPath id="clip-path-30" transform="translate(0 3.6)"><polygon class="cls-1" points="55.9 75.2 55.1 75.2 50.2 75.2 51.5 87.9 55.1 87.9 55.9 87.9 59.5 87.9 60.8 75.2 55.9 75.2"/></clipPath></defs><g class="cls-2"><rect class="cls-3" width="110.8" height="135.1"/></g><g class="cls-2"><path d="M53.9,81.7H52.4V77.2h1.1a.37.37,0,0,1,.3.1.6.6,0,0,1,.1.4Z" transform="translate(0 3.6)"/><path class="cls-4" d="M56.5,82.5h.8a.32.32,0,0,0,.3-.3.27.27,0,0,0-.3-.3h-.8a.32.32,0,0,0-.3.3A.27.27,0,0,0,56.5,82.5Z" transform="translate(0 3.6)"/><path class="cls-4" d="M55.8,84.7h1.9a.35.35,0,0,0,.3-.5.45.45,0,0,0-.3-.4H55.8a.43.43,0,0,0-.4.4.46.46,0,0,0,.4.5Z" transform="translate(0 3.6)"/><rect class="cls-4" x="56.5" y="86.1" width="0.7" height="1.4"/><rect class="cls-5" x="57.17" y="84.55" width="0.3" height="0.7" transform="translate(-27.64 145.72) rotate(-89.94)"/><rect class="cls-5" x="56.1" y="84.58" width="0.3" height="0.7" transform="translate(-28.74 144.68) rotate(-89.94)"/><path class="cls-6" d="M57.1,80.9h.4V78.1a.41.41,0,1,0-.8,0h0v2.4a.43.43,0,0,0,.4.4Z" transform="translate(0 3.6)"/><path class="cls-7" d="M56.3,78.2v3.1" transform="translate(0 3.6)"/><path class="cls-5" d="M57.5,79.9h-.8" transform="translate(0 3.6)"/><path class="cls-5" d="M57.5,78.7h-.8" transform="translate(0 3.6)"/><path class="cls-8" d="M56.7,81.2c0-.1.1-.3.2-.3h0c.1,0,.2.1.2.3s-.1.3-.2.3-.2-.1-.2-.3h0" transform="translate(0 3.6)"/><path class="cls-7" d="M56.3,81.5h1" transform="translate(0 3.6)"/><path class="cls-7" d="M56.8,81.6v.3" transform="translate(0 3.6)"/><path class="cls-4" d="M54,82.2a.27.27,0,0,0-.3-.3h-.8a.32.32,0,0,0-.3.3.27.27,0,0,0,.3.3h.8A.32.32,0,0,0,54,82.2Z" transform="translate(0 3.6)"/><path class="cls-4" d="M54.3,84.7h0a.4.4,0,1,0,0-.8H52.4a.4.4,0,0,0,0,.8Z" transform="translate(0 3.6)"/><rect class="cls-4" x="52.9" y="82.5" width="0.7" height="1.4" transform="matrix(1, 0, 0, 1, -0.11, 3.67)"/><rect class="cls-5" x="52.4" y="88.3" width="0.7" height="0.3"/><rect class="cls-5" x="53.5" y="88.3" width="0.7" height="0.3"/><path class="cls-9" d="M52.6,75.5h5" transform="translate(0 3.6)"/><path class="cls-6" d="M56.4,77.2H53.7a1.31,1.31,0,0,1-1.2-1.3h0V74h5v1.9A1.11,1.11,0,0,1,56.4,77.2Z" transform="translate(0 3.6)"/><path d="M52.6,75l.1,1.1a1.42,1.42,0,0,0,.2.6l.3.3a1.23,1.23,0,0,0,1,.2h2.6c.1-.1.3-.2.4-.3a1.38,1.38,0,0,0,.3-.4c.1-.1.1-.2.1-.4s.1-.3.1-.5v-.7a5.42,5.42,0,0,1-1.1.6c-1,.5-1.2.5-1.3.5a6.94,6.94,0,0,1-1.3-.5l-.4-.2Z" transform="translate(0 3.6)"/><rect x="51.1" y="78.9" width="1.6" height="1"/><path d="M57.4,75.2h1.7a1.27,1.27,0,0,0-.1.6v.5H57.5Z" transform="translate(0 3.6)"/><rect class="cls-10" x="53.4" y="76.7" width="3.5" height="0.9"/><path class="cls-10" d="M53,69.9h-.2c-.2,0-.3-.2-.3-.4v-1c0-.2.1-.4.3-.4h.1" transform="translate(0 3.6)"/><path class="cls-10" d="M57.1,69.9h.2c.2,0,.3-.2.3-.4v-1c0-.2-.1-.4-.3-.4h-.1" transform="translate(0 3.6)"/><path class="cls-11" d="M53.7,72.7h2.8" transform="translate(0 3.6)"/><path class="cls-12" d="M53.2,70.3h3.5l.3.1-.2.9H53.5Z" transform="translate(0 3.6)"/><path class="cls-10" d="M56.3,72.4H53.9a.47.47,0,0,1-.5-.5h0v-.6h3.3v.6a.46.46,0,0,1-.4.5Z" transform="translate(0 3.6)"/><path class="cls-10" d="M52.9,68.8A2.29,2.29,0,0,1,55,66.3a2.42,2.42,0,0,1,2.3,2.4v.2l-.5,2.5H53.5Z" transform="translate(0 3.6)"/><path class="cls-13" d="M54.4,70.3a1.55,1.55,0,0,1-.8-1.1,1.7,1.7,0,0,1-.1-.7c0-.2.1-.3.1-.5s.1-.2.1-.3a.59.59,0,0,1,.5-.2,3.75,3.75,0,0,1,.8-.1,2.77,2.77,0,0,1,.9.1.76.76,0,0,1,.4.2,1.4,1.4,0,0,1,.3.9,2,2,0,0,1-.5,1.5c-.1.1-.3.2-.4.3" transform="translate(0 3.6)"/><path class="cls-14" d="M54.4,70.3a1.88,1.88,0,0,1-.7-2.4c0-.1.1-.1.1-.2" transform="translate(0 3.6)"/><path class="cls-14" d="M56.3,67.6a2,2,0,0,1-.3,2.5l-.2.2" transform="translate(0 3.6)"/><path class="cls-14" d="M52.9,68.4a2.79,2.79,0,0,1,4.3-.2l.1.1" transform="translate(0 3.6)"/><path class="cls-14" d="M53.2,70.3H57" transform="translate(0 3.6)"/><path class="cls-14" d="M56.3,70.7A1.52,1.52,0,0,1,55,71" transform="translate(0 3.6)"/><path class="cls-15" d="M54.9,77.3a.27.27,0,0,1,.3-.3.32.32,0,0,1,.3.3Z" transform="translate(0 3.6)"/><path d="M56.5,73.3h0a1.13,1.13,0,0,0-1.1.3h-.5a1.5,1.5,0,0,0-1.1-.4h0a2.5,2.5,0,0,0,0,1.4H54a1.42,1.42,0,0,0,.6-.2c.1-.1.2-.1.3-.2h.5v-.1h0V74h.3l.1-.1v-.1h-.3v-.2c.1,0,.1,0,.2-.1H56v-.1h-.5v-.1c.1-.1.2-.2.3-.2.2.3.4.2.7.2V74a2,2,0,0,1-.1.7,1.08,1.08,0,0,1-.8-.2h-.1v.1h0a1.45,1.45,0,0,0,.7.2h.2a1.7,1.7,0,0,0,.1-.7A1.1,1.1,0,0,0,56.5,73.3Zm-2,1.3a1.48,1.48,0,0,1-.7.1,1.48,1.48,0,0,1-.1-.7,1.27,1.27,0,0,1,.1-.6,1.7,1.7,0,0,1,.7.1c.1.1.2.1.3.2v.1h-.5v.1h0s0,.1.1,0h.2c.1,0,.1,0,.2.1v.2h-.3v.1a.1.1,0,0,0,.1.1h.3v.1C54.7,74.4,54.6,74.5,54.5,74.6Zm.4-.7h0v-.1h.4v.1h0v.4h-.4Z" transform="translate(0 3.6)"/><path class="cls-4" d="M54.3,79l.3-.5a.61.61,0,0,0-.1-.8h0l-3.2-2.8a.42.42,0,0,0-.7.1h0l-.3.5a.61.61,0,0,0,.1.8h0l3.2,2.8a.43.43,0,0,0,.7-.1Z" transform="translate(0 3.6)"/><path class="cls-16" d="M50.5,75.2l1.2,1" transform="translate(0 3.6)"/><line class="cls-14" x1="51.1" y1="80.6" x2="52.1" y2="79.3"/><line class="cls-14" x1="51.9" y1="81.2" x2="52.8" y2="79.8"/><path class="cls-17" d="M59.9,77.2V75.6" transform="translate(0 3.6)"/><path class="cls-10" d="M59.5,78.7V77.5a.27.27,0,0,1,.3-.3H60a.32.32,0,0,1,.3.3h0v1.2" transform="translate(0 3.6)"/><path class="cls-18" d="M56,76.1c-.2.1-.2.4-.1.6a.35.35,0,0,0,.5.1c.2-.1.2-.4.1-.6h0a.35.35,0,0,0-.5-.1" transform="translate(0 3.6)"/><path class="cls-18" d="M60.3,75.7c0-.3-.1-.5-.4-.5s-.5.1-.5.4.1.5.4.5h0a.46.46,0,0,0,.5-.4h0" transform="translate(0 3.6)"/><path class="cls-15" d="M56.1,68.1a.4.4,0,1,1-.4-.4.43.43,0,0,1,.4.4h0" transform="translate(0 3.6)"/><path class="cls-15" d="M56.3,68.8a.22.22,0,0,1-.2.2c-.1,0-.1-.1-.1-.2a.22.22,0,0,1,.2-.2.35.35,0,0,1,.1.2h0" transform="translate(0 3.6)"/><path d="M56.1,81.7h1.5V77.4H56.5a.35.35,0,0,0-.4.4v3.9Z" transform="translate(0 3.6)"/><line class="cls-8" x1="53.3" y1="85.3" x2="53.3" y2="85.5"/><line class="cls-8" x1="59.9" y1="78.5" x2="59.9" y2="78.9"/><line class="cls-8" x1="59.1" y1="78.9" x2="60.6" y2="78.9"/><line class="cls-8" x1="59.1" y1="79.2" x2="60.7" y2="79.2"/><path class="cls-8" d="M59.1,75.3a.37.37,0,0,1,.1-.3c.1-.1.1-.1.2-.1h.9c.2,0,.3.2.3.4" transform="translate(0 3.6)"/><path class="cls-19" d="M59.1,75.2,59,76.4Z" transform="translate(0 3.6)"/></g><g class="cls-2"><g class="cls-20"><path class="cls-15" d="M18.5,23c-1.2-2.3-3.1-2.3-4.2,0l-.3.5-.2-.5c-1.2-2.3-3.1-2.3-4.2,0a10.25,10.25,0,0,0,0,8.4s4.4,7.7,4.5,7.7l4.5-7.7A11.6,11.6,0,0,0,18.5,23Z" transform="translate(0 3.6)"/><g class="cls-21"><path class="cls-22" d="M18.3,23c-1.1-2.3-3-2.3-4.1,0l-.2.5-.2-.5c-1.1-2.3-3-2.3-4.1,0a11.1,11.1,0,0,0,0,8.4L14,39.1l4.3-7.7A10.25,10.25,0,0,0,18.3,23Z" transform="translate(0 3.6)"/></g><g class="cls-21"><rect class="cls-23" x="14" y="13.2" width="5.8" height="40.2"/></g><path class="cls-15" d="M102.7,41.1c-1.2-2.3-3.1-2.3-4.2,0l-.2.5-.3-.5c-1.2-2.3-3.1-2.3-4.2,0a10.25,10.25,0,0,0,0,8.4s4.4,7.7,4.5,7.7l4.5-7.7A11.6,11.6,0,0,0,102.7,41.1Z" transform="translate(0 3.6)"/><g class="cls-24"><path class="cls-25" d="M102.5,41.1c-1.1-2.3-3-2.3-4.1,0l-.2.5-.2-.5c-1.1-2.3-3-2.3-4.1,0a11.1,11.1,0,0,0,0,8.4l4.3,7.7,4.3-7.7A10.25,10.25,0,0,0,102.5,41.1Z" transform="translate(0 3.6)"/></g><g class="cls-24"><rect class="cls-26" x="98.2" y="31.3" width="5.8" height="40.2"/></g><path class="cls-15" d="M33.2,52.5c-.7-1.4-1.9-1.4-2.6,0l-.1.3-.1-.3c-.7-1.4-1.9-1.4-2.6,0a6.7,6.7,0,0,0,0,5.2s2.7,4.8,2.8,4.8l2.8-4.8A7.75,7.75,0,0,0,33.2,52.5Z" transform="translate(0 3.6)"/><g class="cls-27"><path class="cls-28" d="M33.1,52.5c-.7-1.4-1.9-1.4-2.6,0l-.1.3-.1-.3c-.7-1.4-1.9-1.4-2.6,0a6.7,6.7,0,0,0,0,5.2l2.7,4.8,2.7-4.8A6.7,6.7,0,0,0,33.1,52.5Z" transform="translate(0 3.6)"/></g><g class="cls-27"><rect class="cls-29" x="30.4" y="47.8" width="3.6" height="25"/></g><path class="cls-15" d="M80.4,62.8c-.7-1.4-1.9-1.4-2.6,0l-.1.3-.1-.3c-.7-1.4-1.9-1.4-2.6,0A6.7,6.7,0,0,0,75,68s2.7,4.8,2.8,4.8L80.6,68A7.77,7.77,0,0,0,80.4,62.8Z" transform="translate(0 3.6)"/><g class="cls-30"><path class="cls-31" d="M80.3,62.8c-.7-1.4-1.9-1.4-2.6,0l-.1.3-.1-.3c-.7-1.4-1.9-1.4-2.6,0a6.7,6.7,0,0,0,0,5.2l2.7,4.8L80.3,68A6.7,6.7,0,0,0,80.3,62.8Z" transform="translate(0 3.6)"/></g><g class="cls-30"><rect class="cls-32" x="77.6" y="58.1" width="3.6" height="25"/></g><path class="cls-15" d="M84.4,5.5c-.7-1.4-1.9-1.4-2.6,0l-.1.3-.1-.3c-.7-1.4-1.9-1.4-2.6,0a6.7,6.7,0,0,0,0,5.2s2.7,4.8,2.8,4.8l2.8-4.8A6.73,6.73,0,0,0,84.4,5.5Z" transform="translate(0 3.6)"/><g class="cls-33"><path class="cls-34" d="M84.4,5.5c-.7-1.4-1.9-1.4-2.6,0l-.1.3-.1-.3c-.7-1.4-1.9-1.4-2.6,0a6.7,6.7,0,0,0,0,5.2l2.7,4.8,2.7-4.8A6.7,6.7,0,0,0,84.4,5.5Z" transform="translate(0 3.6)"/></g><g class="cls-33"><rect class="cls-35" x="81.7" y="0.8" width="3.6" height="25"/></g><path class="cls-15" d="M33.5,10.7c-.4-.9-1.1-.9-1.6,0l-.1.2-.1-.2c-.4-.9-1.1-.9-1.6,0a4.15,4.15,0,0,0,0,3.1l1.6,2.8,1.6-2.8A3.43,3.43,0,0,0,33.5,10.7Z" transform="translate(0 3.6)"/><g class="cls-36"><path class="cls-37" d="M33.4,10.7c-.4-.9-1.1-.9-1.5,0l-.1.2-.1-.2c-.4-.9-1.1-.9-1.5,0a4.15,4.15,0,0,0,0,3.1l1.6,2.8,1.6-2.8A4.15,4.15,0,0,0,33.4,10.7Z" transform="translate(0 3.6)"/></g><g class="cls-36"><rect class="cls-38" x="31.8" y="9.4" width="2.1" height="14.7"/></g><path class="cls-15" d="M7.7,35.7c-.4-.9-1.1-.9-1.6,0l-.1.2v-.2c-.4-.9-1.1-.9-1.6,0a4.15,4.15,0,0,0,0,3.1L6,41.6l1.6-2.8A3.73,3.73,0,0,0,7.7,35.7Z" transform="translate(0 3.6)"/><g class="cls-39"><path class="cls-40" d="M7.7,35.7c-.4-.9-1.1-.9-1.5,0l-.1.2L6,35.7c-.4-.9-1.1-.9-1.5,0a4.15,4.15,0,0,0,0,3.1l1.6,2.8,1.6-2.8A4.15,4.15,0,0,0,7.7,35.7Z" transform="translate(0 3.6)"/></g><g class="cls-39"><rect class="cls-41" x="6.1" y="34.4" width="2.1" height="14.7"/></g><path class="cls-15" d="M90.9,30.8c-.4-.9-1.1-.9-1.6,0V31l-.1-.2c-.4-.9-1.1-.9-1.6,0a4.15,4.15,0,0,0,0,3.1l1.6,2.8,1.6-2.8A3.72,3.72,0,0,0,90.9,30.8Z" transform="translate(0 3.6)"/><g class="cls-42"><path class="cls-43" d="M90.8,30.8c-.4-.9-1.1-.9-1.5,0V31l-.1-.2c-.4-.9-1.1-.9-1.5,0a4.15,4.15,0,0,0,0,3.1l1.6,2.8,1.6-2.8A3.74,3.74,0,0,0,90.8,30.8Z" transform="translate(0 3.6)"/></g><g class="cls-42"><rect class="cls-44" x="89.3" y="29.6" width="2.1" height="14.7"/></g></g><g class="cls-20"><path class="cls-15" d="M42.76,107.8,34.27,80.73c-.16-.56-.48-.87-.8-.87s-.63.31-.79.87L24.1,107.88a3.46,3.46,0,0,0,0,1.75c.16.55.48.87.8.87H42.05c.55,0,1-.79,1-1.74A2.8,2.8,0,0,0,42.76,107.8Z" transform="translate(0 3.6)"/><path class="cls-3" d="M43,107.8,34.5,80.73c-.15-.56-.47-.87-.79-.87s-.63.31-.79.87l-8.58,27.15a3.25,3.25,0,0,0,0,1.75c.16.55.48.87.8.87H42.28c.56,0,1-.79,1-1.74A2.8,2.8,0,0,0,43,107.8Z" transform="translate(0 3.6)"/><path class="cls-15" d="M34.5,80.73c-.15-.56-.47-.87-.79-.87s-.63.31-.79.87l-3.5,11c.24,1.19.8,2,1.35,2a1,1,0,0,0,.8-.48c.08,2.78,1,5,2.14,5s2.06-2.23,2.14-5a1,1,0,0,0,.8.48c.55,0,1.11-.79,1.35-2Z" transform="translate(0 3.6)"/><path class="cls-15" d="M90.63,105.9,81,75.25c-.16-.63-.56-1-1-1s-.71.4-.95,1l-9.68,30.81a3.82,3.82,0,0,0,0,1.9c.16.64.55,1,1,1H89.76c.56,0,1-.87,1-1.9A1.72,1.72,0,0,0,90.63,105.9Z" transform="translate(0 3.6)"/><path class="cls-3" d="M91,105.9,81.27,75.25c-.16-.63-.56-1-1-1s-.71.4-1,1l-9.69,30.81a4.06,4.06,0,0,0,0,1.9c.16.64.56,1,1,1H90.08c.55,0,1-.87,1-1.9A4.56,4.56,0,0,0,91,105.9Z" transform="translate(0 3.6)"/><path class="cls-15" d="M81.27,75.25c-.16-.63-.56-1-1-1s-.71.4-1,1L75.47,87.64c.32,1.35.87,2.3,1.59,2.3a1.21,1.21,0,0,0,.87-.56C78,92.56,79,95,80.31,95s2.3-2.54,2.38-5.64a1,1,0,0,0,.88.56c.63,0,1.27-.87,1.59-2.22Z" transform="translate(0 3.6)"/><path class="cls-15" d="M27.6,105.1,21.48,85.73c-.15-.39-.31-.63-.55-.63s-.48.24-.56.63l-6.11,19.45a1.53,1.53,0,0,0,0,1.19c.16.4.32.64.56.64h12.3c.4,0,.64-.56.64-1.19A3,3,0,0,1,27.6,105.1Z" transform="translate(0 3.6)"/><path class="cls-3" d="M27.76,105.1,21.64,85.73c-.16-.39-.31-.63-.55-.63s-.48.24-.56.63l-6.11,19.45a1.53,1.53,0,0,0,0,1.19c.16.4.32.64.55.64H27.28c.4,0,.63-.56.63-1.19A6.87,6.87,0,0,0,27.76,105.1Z" transform="translate(0 3.6)"/><path class="cls-15" d="M21.64,85.73c-.16-.39-.31-.63-.55-.63s-.48.24-.56.63L18,93.59c.16.88.56,1.43,1,1.43.24,0,.4-.16.56-.4.08,2,.71,3.58,1.51,3.58s1.51-1.59,1.51-3.58c.15.24.31.4.55.4.4,0,.8-.55.95-1.43Z" transform="translate(0 3.6)"/></g><g class="cls-20"><rect class="cls-1" width="110.8" height="135.1"/></g><g class="cls-20"><line class="cls-45" x1="46.7" y1="42.8" x2="51.1" y2="79.8"/><line class="cls-45" x1="64.2" y1="42.8" x2="59.8" y2="79.8"/><path class="cls-46" d="M66.5,25.7c-2.9-5.1-7.6-5.1-10.5,0l-.6,1-.6-1c-2.9-5.1-7.6-5.1-10.5,0s-2.9,13.3,0,18.4c0,0,10.9,16.9,11,16.8s11-16.8,11-16.8C69.3,39.1,69.3,30.8,66.5,25.7Z" transform="translate(0 3.6)"/><path id="SVGID" class="cls-46" d="M66.1,25.7c-2.8-5.1-7.4-5.1-10.2,0l-.6,1-.6-1c-2.8-5.1-7.4-5.1-10.2,0s-2.8,13.3,0,18.4c0,0,10.6,16.9,10.7,16.8S65.9,44.1,65.9,44.1C69,39.1,69,30.8,66.1,25.7Z" transform="translate(0 3.6)"/><g class="cls-47"><path class="cls-46" d="M66.1,25.7c-2.8-5.1-7.4-5.1-10.2,0l-.6,1-.6-1c-2.8-5.1-7.4-5.1-10.2,0s-2.8,13.3,0,18.4c0,0,10.6,16.9,10.7,16.8S65.9,44.1,65.9,44.1C69,39.1,69,30.8,66.1,25.7Z" transform="translate(0 3.6)"/></g><g class="cls-47"><rect class="cls-46" x="55.4" y="0.2" width="14.3" height="87.8"/></g><path class="cls-3" d="M64.7,25.7c-2.4-5.1-6.4-5.1-8.8,0l-.5,1-.5-1c-2.4-5.1-6.4-5.1-8.8,0s-2.4,13.3,0,18.4c0,0,9.2,16.9,9.3,16.8s9.3-16.8,9.3-16.8C67.2,39.1,67.2,30.8,64.7,25.7Z" transform="translate(0 3.6)"/><path id="SVGID-2" data-name="SVGID" class="cls-3" d="M64.5,25.7c-2.4-5.1-6.2-5.1-8.6,0l-.5,1-.5-1c-2.4-5.1-6.2-5.1-8.6,0s-2.4,13.3,0,18.4c0,0,9,16.9,9.1,16.8s9.1-16.8,9.1-16.8C66.9,39.1,66.9,30.8,64.5,25.7Z" transform="translate(0 3.6)"/><g class="cls-48"><path class="cls-3" d="M64.5,25.7c-2.4-5.1-6.2-5.1-8.6,0l-.5,1-.5-1c-2.4-5.1-6.2-5.1-8.6,0s-2.4,13.3,0,18.4c0,0,9,16.9,9.1,16.8s9.1-16.8,9.1-16.8C66.9,39.1,66.9,30.8,64.5,25.7Z" transform="translate(0 3.6)"/></g><g class="cls-48"><rect class="cls-3" x="55.4" y="0.2" width="12.1" height="87.8"/></g><line class="cls-45" x1="48.8" y1="42.8" x2="52.1" y2="79.8"/><line class="cls-45" x1="62" y1="42.8" x2="58.7" y2="79.8"/><path class="cls-49" d="M61.7,25.7c-1.6-5.1-4.3-5.1-5.9,0l-.3,1-.3-1c-1.6-5.1-4.3-5.1-5.9,0a35.87,35.87,0,0,0,0,18.4S55.5,61,55.6,60.9s6.3-16.8,6.3-16.8C63.3,39.1,63.3,30.8,61.7,25.7Z" transform="translate(0 3.6)"/><path id="SVGID-3" data-name="SVGID" class="cls-49" d="M61.5,25.7c-1.6-5.1-4.2-5.1-5.8,0l-.3,1-.3-1c-1.6-5.1-4.2-5.1-5.8,0a35.87,35.87,0,0,0,0,18.4s6,16.9,6.1,16.8,6.1-16.8,6.1-16.8A35.87,35.87,0,0,0,61.5,25.7Z" transform="translate(0 3.6)"/><g class="cls-50"><path class="cls-49" d="M61.5,25.7c-1.6-5.1-4.2-5.1-5.8,0l-.3,1-.3-1c-1.6-5.1-4.2-5.1-5.8,0a35.87,35.87,0,0,0,0,18.4s6,16.9,6.1,16.8,6.1-16.8,6.1-16.8A35.87,35.87,0,0,0,61.5,25.7Z" transform="translate(0 3.6)"/></g><g class="cls-50"><rect class="cls-49" x="55.4" y="0.2" width="8.1" height="87.8"/></g><polygon class="cls-51" points="55.7 78.8 54.9 78.8 50 78.8 51.3 91.5 54.9 91.5 55.7 91.5 59.3 91.5 60.6 78.8 55.7 78.8"/><polygon class="cls-15" points="55.9 78.8 55.1 78.8 50.2 78.8 51.5 91.5 55.1 91.5 55.9 91.5 59.5 91.5 60.8 78.8 55.9 78.8"/><g class="cls-52"><polygon class="cls-53" points="61 78.8 60.2 78.8 55.3 78.8 55.5 91.5 59.1 91.5 59.9 91.5 63.5 91.5 65.9 78.8 61 78.8"/></g></g></g><path class="cls-54" d="M55.4,10.4,9.4,37.7V90.9l46,26.8,46-26.8V37ZM99.7,89.7,55.5,115.4,11.4,89.7v-51L55.6,12.5,99.7,38Z" transform="translate(0 3.6)"/><path class="cls-55" d="M66.6,117.2l1.6-.9.1.1a1.6,1.6,0,0,1,.3.8v.8a2.07,2.07,0,0,1-1,1.4,2,2,0,0,1-1.7.2,2.21,2.21,0,0,1-1.4-1.1,2,2,0,0,1-.2-1.7,2.21,2.21,0,0,1,1.1-1.4,1.61,1.61,0,0,1,.9-.3,2.34,2.34,0,0,1,1.1.2l-.2.6a2,2,0,0,0-1.5,0,1.61,1.61,0,0,0-.6,2.3,1.55,1.55,0,0,0,1.1.8,1.39,1.39,0,0,0,1.1-.2,1.34,1.34,0,0,0,.6-.7,1.39,1.39,0,0,0,0-.9l-.9.5Z" transform="translate(0 3.6)"/><rect class="cls-55" x="70.18" y="112.8" width="0.7" height="4.4" transform="translate(-47.99 54.16) rotate(-29.95)"/><polygon class="cls-55" points="73.3 115.2 75.2 118.5 74.6 118.8 72.7 115.6 71.9 116.1 71.6 115.5 73.9 114.2 74.2 114.7 73.3 115.2"/><path class="cls-55" d="M78.5,108.2l.4.7a1.91,1.91,0,0,0-1.3.2,1.45,1.45,0,0,0-.7,1,2,2,0,0,0,.2,1.3,1.59,1.59,0,0,0,1,.8,1.32,1.32,0,0,0,1.2-.2,1,1,0,0,0,.5-.4c.1-.1.1-.2.2-.3s.1-.2.2-.4l.4.7a2,2,0,0,1-.9.9,2,2,0,0,1-1.7.2,2.43,2.43,0,0,1-1.4-1,2.22,2.22,0,0,1-.3-1.6,2.27,2.27,0,0,1,1.1-1.6,1.8,1.8,0,0,1,1.1-.3" transform="translate(0 3.6)"/><path class="cls-12" d="M81.2,108a2,2,0,0,1-.2-1.7,2.21,2.21,0,0,1,1.1-1.4,2,2,0,0,1,1.7-.2,2.21,2.21,0,0,1,1.4,1.1,2,2,0,0,1,.2,1.7,2.42,2.42,0,0,1-2.7,1.7,2.48,2.48,0,0,1-1.5-1.2m.6-.3a1.59,1.59,0,0,0,1,.8,1.32,1.32,0,0,0,1.2-.2,1.59,1.59,0,0,0,.8-1,1.53,1.53,0,0,0-.2-1.3,1.59,1.59,0,0,0-1-.8,1.32,1.32,0,0,0-1.2.2,2,2,0,0,0-.8,1,1.91,1.91,0,0,0,.2,1.3" transform="translate(0 3.6)"/><rect class="cls-55" x="87.22" y="103.08" width="0.7" height="4.4" transform="translate(-40.88 61.42) rotate(-29.97)"/><polygon class="cls-55" points="91.1 109.3 88.8 105.3 93.2 106.6 91.7 103.9 92.3 103.6 94.6 107.6 90.2 106.3 91.7 109 91.1 109.3"/></svg>